<svg id="Layer_1" data-name="Layer 1" xmlns="http://www.w3.org/2000/svg" viewBox="0 0 316.16 57.28"><path d="M64.51,36.86c.43,4.43,3.67,5.37,5.33,5.37a5.22,5.22,0,0,0,5.32-5.08c0-3.74-3.2-4.57-6.29-5.58-2.16-.65-6.81-2-6.81-7C62,19.8,65.91,17.17,70,17.17c3.31,0,7.13,1.84,7.56,6.88h-3c-.32-1.73-1.19-4.36-4.72-4.36A4.59,4.59,0,0,0,65,24.27c0,3.24,2.6,4,6.63,5.39,2.52,1,6.48,2.38,6.48,7.28,0,4.35-3.28,7.81-8.25,7.81-4.46,0-8.17-2.81-8.35-7.89Z" fill="#f1f2f2"/><path d="M98.2,37.73A10.3,10.3,0,0,1,78.12,34.6a10.27,10.27,0,0,1,20.08-3H95.47A7.67,7.67,0,0,0,83,29a7.92,7.92,0,0,0-2.2,5.58,7.53,7.53,0,0,0,7.63,7.74,7.31,7.31,0,0,0,7-4.61Z" fill="#f1f2f2"/><path d="M99.14,17.64h2.67V28.08c1.18-2.55,4.17-3.78,6.91-3.71,3.06,0,5.07,1,6.4,2.67s1.84,4,1.84,6.8V44.28h-2.63V34a8.27,8.27,0,0,0-1.4-5.11,5.86,5.86,0,0,0-4.86-2,6.06,6.06,0,0,0-4.72,1.9,6.61,6.61,0,0,0-1.54,4.5v11H99.14Z" fill="#f1f2f2"/><path d="M118.19,34.56a10.28,10.28,0,0,1,20.55,0,10.28,10.28,0,0,1-20.55,0Zm2.62.07a7.64,7.64,0,1,0,15.27,0,7.64,7.64,0,1,0-15.27,0Z" fill="#f1f2f2"/><path d="M138.85,34.56a10.28,10.28,0,0,1,20.55,0,10.28,10.28,0,0,1-20.55,0Zm2.63.07a7.63,7.63,0,1,0,15.26,0,7.63,7.63,0,1,0-15.26,0Z" fill="#f1f2f2"/><path d="M160.7,17.64h2.66V44.28H160.7Z" fill="#f1f2f2"/><path d="M173.05,44.28H168.6V13.77h8.82c7.3,0,10.77,3.79,10.77,9.23s-3.47,9.24-10.77,9.24h-4.37Zm0-16.12h4.37c5.08,0,6.31-2.89,6.31-5.16s-1.23-5.15-6.31-5.15h-4.37Z" fill="#f1f2f2"/><path d="M192.84,44.28h-4.28V13.77h4.28Z" fill="#f1f2f2"/><path d="M214,44.28V40.73h-.08a8.73,8.73,0,0,1-7.75,4.13A11.73,11.73,0,0,1,194,32.94c0-5.56,3.92-12.12,12.12-12.12a9.05,9.05,0,0,1,7.75,3.83H214V21.44h4.29V44.28Zm-7.83-19.54c-5.28,0-7.83,4.57-7.83,8.16a7.88,7.88,0,1,0,15.75,0A7.81,7.81,0,0,0,206.12,24.74Z" fill="#f1f2f2"/><path d="M236.55,44.28V31.87c0-1.77,0-7.13-5.69-7.13-3.59,0-6,2.51-6,7.09V44.28h-4.29V21.44h4v2.43h.08a8.12,8.12,0,0,1,6.68-3.05,9.28,9.28,0,0,1,8.08,4.08,11.12,11.12,0,0,1,1.45,5.86V44.28Z" fill="#f1f2f2"/><path d="M259.1,44.28V31.87c0-1.77,0-7.13-5.69-7.13-3.58,0-6,2.51-6,7.09V44.28h-4.28V21.44h4v2.43h.08a8.11,8.11,0,0,1,6.68-3.05A9.3,9.3,0,0,1,262,24.9a11.22,11.22,0,0,1,1.44,5.86V44.28Z" fill="#f1f2f2"/><path d="M268.83,34.71a7.75,7.75,0,0,0,7.51,6.23,7.31,7.31,0,0,0,6.51-3.83h4.29a11.65,11.65,0,0,1-11,7.75,11.92,11.92,0,0,1-11.62-12,11.67,11.67,0,1,1,23.33-.29c0,.74-.08,1.9-.12,2.18Zm14.76-3.29a7.42,7.42,0,0,0-14.76,0Z" fill="#f1f2f2"/><path d="M289,44.28V21.44h4V23.5h.08a7,7,0,0,1,5.81-2.68v4.41a8,8,0,0,0-3.09.83c-1.36.74-2.52,2.47-2.52,5.73V44.28Z" fill="#f1f2f2"/><path d="M33.82,14.77h0m-.76.24,1.51,1.52-3.33,3.33-5.91,5.91L22,29.1l-1.3-1.31a20,20,0,0,1,2.73-4.42A31.94,31.94,0,0,1,26,20.48c1-1,2-1.89,2.86-2.64A17.21,17.21,0,0,1,33.06,15m.72-3.24c-.73,0-2.84.37-6.85,3.78-.91.77-1.92,1.69-3,2.81a35.44,35.44,0,0,0-2.81,3.15c-3.36,4.25-3.81,7.1-3.81,7.1L22,33.34l5.46-5.45L33.36,22l5.46-5.45L34.09,11.8a1.2,1.2,0,0,0-.31,0Z" fill="#f1f2f2"/><path d="M48.42,37.54,48.15,43l-5.4.21,5.67-5.67m2.82-6.36h0Zm0,0L36.47,46s13.36-.52,14.06-.53l.71-14.24Z" fill="#f1f2f2"/><path d="M39.53,21.67l7.77,7.77L34.73,42,27,34.24,39.53,21.67m0-4.24L22.72,34.24l12,12L51.54,29.44l-12-12Z" fill="#f1f2f2"/></svg>